<svg id="Layer_1" data-name="Layer 1" xmlns="http://www.w3.org/2000/svg" viewBox="0 0 100 87.6"><defs><style>.cls-1{fill:#ff8080;}.cls-2{fill:#f66;}.cls-3{fill:#ff4d4d;}.cls-4{fill:red;}</style></defs><title>crowded</title><path class="cls-1" d="M90,25.15c4.3-2.44,7.15-6.65,7.15-11.46,0-7.56-7-13.7-15.73-13.7S65.68,6.13,65.68,13.7c0,4.8,2.85,9,7.15,11.46-5.94,4.18-10,12.55-10,22.21,0,13.83,8.32,25,18.59,25S100,61.19,100,47.36C100,37.7,95.94,29.33,90,25.15Z"/><path class="cls-2" d="M72,26.53c4.53-2.58,7.54-7,7.54-12.08C79.59,6.47,72.16,0,63,0S46.41,6.47,46.41,14.44c0,5.07,3,9.5,7.54,12.08C47.68,30.93,43.4,39.76,43.4,49.94c0,14.59,8.78,26.42,19.6,26.42S82.6,64.53,82.6,49.94C82.6,39.76,78.32,30.93,72,26.53Z"/><path class="cls-3" d="M53.24,29c5-2.82,8.23-7.66,8.23-13.2C61.48,7.06,53.36,0,43.36,0S25.24,7.06,25.24,15.77c0,5.53,3.28,10.38,8.23,13.2-6.84,4.81-11.52,14.45-11.52,25.58,0,15.93,9.59,28.85,21.41,28.85S64.77,70.48,64.77,54.55C64.77,43.42,60.09,33.79,53.24,29Z"/><path class="cls-4" d="M32.87,30.43c5.2-3,8.65-8.05,8.65-13.86C41.52,7.42,33,0,22.49,0s-19,7.42-19,16.57c0,5.81,3.45,10.9,8.65,13.86C4.92,35.49,0,45.61,0,57.29,0,74,10.07,87.6,22.49,87.6S45,74,45,57.29C45,45.61,40.06,35.49,32.87,30.43Z"/></svg>