<svg id="Layer_1" data-name="Layer 1" xmlns="http://www.w3.org/2000/svg" viewBox="0 0 24 23"><defs><style>.cls-1{fill:#3c763d;}</style></defs><title>kudos</title><path class="cls-1" d="M24,11a2.5,2.5,0,0,0-2.5-2.5H15.21a14.42,14.42,0,0,0,.79-4c0-2.17-1.84-4-3-4a3.13,3.13,0,0,0-1.81.61A0.5,0.5,0,0,0,11,1.5V4.89L8.12,11.13,8,11.19V11a0.5,0.5,0,0,0-.5-0.5h-7A0.5,0.5,0,0,0,0,11V23a0.5,0.5,0,0,0,.5.5h7A0.5,0.5,0,0,0,8,23V21.91a6.56,6.56,0,0,0,2.5.59h9.25A2.25,2.25,0,0,0,22,20.25a2.22,2.22,0,0,0-.23-1,2.24,2.24,0,0,0,1-3,2.24,2.24,0,0,0,.58-3.57A2.47,2.47,0,0,0,24,11Z" transform="translate(0 -0.5)"/></svg>