<svg id="Layer_1" data-name="Layer 1" xmlns="http://www.w3.org/2000/svg" viewBox="0 0 178.89 30"><defs><style>.cls-1{fill:red;}.cls-2{fill:#b3b3b3;}.cls-3{fill:#ccc;}.cls-4{fill:#e6e6e6;}.cls-5{fill:#fff;}</style></defs><title>logo</title><rect class="cls-1" width="30" height="30"/><path class="cls-2" d="M24.16,10.1a3.6,3.6,0,1,0-3.93,0,7.58,7.58,0,0,0-2.29,5.84c0,3.64,1.91,6.59,4.26,6.59s4.26-2.95,4.26-6.59A7.58,7.58,0,0,0,24.16,10.1Z"/><path class="cls-3" d="M20,10.46a3.8,3.8,0,1,0-4.14,0,8,8,0,0,0-2.42,6.16c0,3.84,2,6.95,4.49,6.95s4.49-3.11,4.49-6.95A8,8,0,0,0,20,10.46Z"/><path class="cls-4" d="M15.74,11.1a4.15,4.15,0,1,0-4.53,0c-1.57,1.27-2.64,3.8-2.64,6.73,0,4.19,2.19,7.59,4.9,7.59s4.9-3.4,4.9-7.59C18.38,14.9,17.31,12.37,15.74,11.1Z"/><path class="cls-5" d="M11.08,11.48a4.36,4.36,0,1,0-4.75,0c-1.65,1.33-2.77,4-2.77,7.06,0,4.4,2.3,8,5.15,8s5.15-3.57,5.15-8C13.85,15.48,12.72,12.81,11.08,11.48Z"/><path class="cls-5" d="M44.09,7.92h3.13l-3,14.16H41.1Z"/><path class="cls-5" d="M54,14.82a1.35,1.35,0,0,0-1.59-1.39c-1,0-1.73.28-1.73,1,0,0.46.34,0.73,1.29,1l1.41,0.46c1.51,0.5,2.7,1.21,2.7,2.93,0,2.54-2.52,3.49-4.88,3.49-2,0-4.36-.79-4.36-3.19V18.75h2.62v0.34c0,0.93,1.05,1.39,2,1.39s1.78-.3,1.78-1.23a1.11,1.11,0,0,0-1-1.13l-2.16-.69c-1.41-.46-2.22-1-2.22-2.62,0-2.42,2.56-3.25,4.54-3.25,2.24,0,4.24.63,4.2,3.27H54Z"/><path class="cls-5" d="M65.78,7.92h3.13l-3,14.16H62.78Z"/><path class="cls-5" d="M74.25,11.83h2l-0.44,1.88h-2l-1.05,5.1a4.3,4.3,0,0,0-.08.48,0.74,0.74,0,0,0,1,.75,8.69,8.69,0,0,0,1-.06l-0.48,2.18a17.16,17.16,0,0,1-1.76.1c-1.31,0-2.72-.42-2.68-2.08a4.92,4.92,0,0,1,.14-1L71,13.71H69.19l0.44-1.88h1.81l0.63-3.11h2.82Z"/><path class="cls-5" d="M92.62,12.84a2.38,2.38,0,0,0-2.54-2.64c-3.19,0-4.64,3.23-4.64,5.95,0,1.94,1,3.65,3.21,3.65A3.45,3.45,0,0,0,92,17H95.1c-1.27,3.95-3.41,5.43-6.48,5.43-4,0-6.29-2.28-6.29-6.27,0-4.58,3-8.57,7.73-8.57,3.27,0,5.75,1.8,5.67,5.26H92.62Z"/><path class="cls-5" d="M98.2,11.83h2.68l-0.42,1.84,0,0A3.76,3.76,0,0,1,104,11.55a6.46,6.46,0,0,1,.87.06l-0.57,2.74a6.12,6.12,0,0,0-1.19-.18c-2.16,0-2.94,1.63-3.31,3.37l-1,4.54H96.06Z"/><path class="cls-5" d="M110.1,11.55c2.82,0,4.78,1.39,4.78,4.34,0,3.61-2.24,6.46-6,6.46-2.85,0-4.7-1.49-4.7-4.42C104.21,14.46,106.45,11.55,110.1,11.55Zm-1.05,8.69c2.1,0,3-2.58,3-4.3,0-1.37-.59-2.26-2.06-2.26-2.06,0-3,2.54-3,4.26A2.08,2.08,0,0,0,109.05,20.24Z"/><path class="cls-5" d="M127,22.08H124l-0.36-7.2h0l-3.17,7.2h-3l-1.13-10.25h2.88l0.4,7.22h0l3.15-7.22h2.86L126,19h0l3.29-7.16h3Z"/><path class="cls-5" d="M139.17,20.81l0,0a3.38,3.38,0,0,1-3.07,1.59,3.68,3.68,0,0,1-3.91-4c0-3.37,1.8-6.76,5.59-6.76a3,3,0,0,1,2.88,1.65h0l1.13-5.28h2.82l-3,14.16h-2.72ZM135,18a2,2,0,0,0,2,2.28c2.1,0,3.09-2.58,3.09-4.34a1.94,1.94,0,0,0-2-2.22C135.92,13.67,135,16.15,135,18Z"/><path class="cls-5" d="M147,17.64c0,0.26,0,.44,0,0.6,0,1.19.73,2,2.26,2a2.44,2.44,0,0,0,2.1-1.41h2.82c-0.89,2.3-2.36,3.53-5.32,3.53-2.74,0-4.56-1.57-4.56-4.48,0-3.27,2.16-6.33,5.65-6.33,2.85,0,4.78,1.51,4.78,4.48a8.38,8.38,0,0,1-.16,1.61H147Zm5-1.79c0-1.05-.26-2.18-1.9-2.18a2.88,2.88,0,0,0-2.8,2.18H152Z"/><path class="cls-5" d="M162.68,20.81l0,0a3.38,3.38,0,0,1-3.07,1.59,3.68,3.68,0,0,1-3.91-4c0-3.37,1.8-6.76,5.59-6.76a3,3,0,0,1,2.88,1.65h0l1.13-5.28h2.81l-3,14.16h-2.72ZM158.48,18a2,2,0,0,0,2,2.28c2.1,0,3.09-2.58,3.09-4.34a1.94,1.94,0,0,0-2-2.22C159.43,13.67,158.48,16.15,158.48,18Z"/><path class="cls-5" d="M169.06,12.34c0.16-3.15,2.52-4.76,5.51-4.76,2.28,0,4.32,1.13,4.32,3.67,0,1.88-1.29,2.93-2.76,3.77-1.19.65-2.08,1.25-2.26,2.7h-2.62c0.38-2.6,1.37-3.27,3.27-4.28a2.32,2.32,0,0,0,1.41-2,1.54,1.54,0,0,0-1.72-1.55,2.46,2.46,0,0,0-2.34,2.44h-2.82ZM170.68,19h3.13l-0.65,3.05H170Z"/></svg>